<svg width="54" height="35" viewBox="0 0 54 35" fill="none" xmlns="http://www.w3.org/2000/svg">
<path opacity="0.3" d="M13 11.0001C20.1799 11.0001 26 15.6988 26 21.495C26 25.6675 22.9839 29.2712 18.6155 30.9627C18.7469 31.6026 19.5923 33.6186 20.8946 35.0001C20.8946 35.0001 16.3522 33.5689 14.2501 31.7289C13.5825 31.8143 13.0848 31.8548 12.3878 31.8548C5.20803 31.8548 0 27.2911 0 21.495C0 15.6988 5.82036 11.0001 13 11.0001Z" fill="#82C6E6"/>
<path d="M20.8946 35.0001C19.5923 33.6184 18.7469 31.6025 18.6155 30.9627C22.9839 29.2712 26 25.6675 26 21.495C26 15.6989 20.1799 11.0001 13 11.0001C13 11.0001 18.6382 11.2189 22.0269 14.7965C25.4156 18.3741 25.7597 22.0992 23.6437 25.7576C21.5275 29.4159 17.3355 30.43 17.3355 30.43C17.3355 30.43 17.873 33.4463 20.8946 35.0001Z" fill="#DAEEF7"/>
<path d="M12.5 22C13.3284 22 14 21.3284 14 20.5C14 19.6716 13.3284 19 12.5 19C11.6716 19 11 19.6716 11 20.5C11 21.3284 11.6716 22 12.5 22Z" fill="#82C6E6"/>
<path d="M12.5 22C13.3284 22 14 21.3284 14 20.5C14 19.6716 13.3284 19 12.5 19C11.6716 19 11 19.6716 11 20.5C11 21.3284 11.6716 22 12.5 22Z" fill="#82C6E6"/>
<path d="M17.5 22C18.3284 22 19 21.3284 19 20.5C19 19.6716 18.3284 19 17.5 19C16.6716 19 16 19.6716 16 20.5C16 21.3284 16.6716 22 17.5 22Z" fill="#82C6E6"/>
<path d="M17.5 22C18.3284 22 19 21.3284 19 20.5C19 19.6716 18.3284 19 17.5 19C16.6716 19 16 19.6716 16 20.5C16 21.3284 16.6716 22 17.5 22Z" fill="#82C6E6"/>
<path d="M7.5 22.0001C8.32843 22.0001 9 21.3285 9 20.5001C9 19.6716 8.32843 19.0001 7.5 19.0001C6.67157 19.0001 6 19.6716 6 20.5001C6 21.3285 6.67157 22.0001 7.5 22.0001Z" fill="#82C6E6"/>
<path d="M7.5 22.0001C8.32843 22.0001 9 21.3285 9 20.5001C9 19.6716 8.32843 19.0001 7.5 19.0001C6.67157 19.0001 6 19.6716 6 20.5001C6 21.3285 6.67157 22.0001 7.5 22.0001Z" fill="#82C6E6"/>
<path d="M36.5001 0C26.8349 0 19 6.46366 19 14.4371C19 20.1769 23.0604 25.1341 28.9406 27.4609C28.7638 28.3413 28.2066 30.0998 26.4536 32C26.4536 32 30.9124 31.2259 33.7421 28.6951C34.6407 28.8124 35.5616 28.8742 36.5001 28.8742C46.165 28.8742 54 22.4103 54 14.4371C54 6.46366 46.165 0 36.5001 0Z" fill="#82C6E6"/>
<path d="M29.5 17.0001C30.8807 17.0001 32 15.8808 32 14.5001C32 13.1193 30.8807 12.0001 29.5 12.0001C28.1193 12.0001 27 13.1193 27 14.5001C27 15.8808 28.1193 17.0001 29.5 17.0001Z" fill="white"/>
<path d="M36.5 17C37.8807 17 39 15.8807 39 14.5C39 13.1193 37.8807 12 36.5 12C35.1193 12 34 13.1193 34 14.5C34 15.8807 35.1193 17 36.5 17Z" fill="white"/>
<path d="M43.5 17C44.8807 17 46 15.8807 46 14.5C46 13.1193 44.8807 12 43.5 12C42.1193 12 41 13.1193 41 14.5C41 15.8807 42.1193 17 43.5 17Z" fill="white"/>
</svg>
