<svg width="46" height="34" viewBox="0 0 46 34" fill="none" xmlns="http://www.w3.org/2000/svg">
<path d="M43.9987 18.9676C42.6648 17.2854 40.9602 16.195 38.8834 15.6958C39.5387 14.6978 39.8655 13.5869 39.8655 12.3635C39.8655 10.657 39.2664 9.20018 38.069 7.99266C36.8712 6.78555 35.4258 6.18175 33.7327 6.18175C32.2152 6.18175 30.8897 6.68085 29.7559 7.67904C28.814 5.36075 27.3081 3.50146 25.2399 2.1011C23.1717 0.700309 20.8916 0 18.3997 0C15.0138 0 12.1227 1.20769 9.72682 3.62249C7.3308 6.0367 6.13317 8.95085 6.13317 12.3638C6.13317 12.573 6.14919 12.9192 6.18108 13.402C4.29644 14.2874 2.7952 15.6155 1.67687 17.3861C0.558957 19.1573 0 21.0887 0 23.1819C0 26.1603 1.05036 28.7073 3.1505 30.8243C5.25072 32.9418 7.7784 34 10.7332 34H36.8002C39.3393 34 41.5075 33.0941 43.3046 31.2833C45.1014 29.4726 46 27.2874 46 24.7272C45.9997 22.57 45.3327 20.6504 43.9987 18.9676ZM30.4383 18.316C30.2862 18.4686 30.107 18.545 29.8996 18.545H24.533V27.0453C24.533 27.2543 24.4572 27.4354 24.3055 27.5883C24.1534 27.7416 23.9741 27.8176 23.7668 27.8176H19.1661C18.9585 27.8176 18.7788 27.7417 18.6271 27.5883C18.4757 27.4354 18.3995 27.2543 18.3995 27.0453V18.545H13.0328C12.8094 18.545 12.6256 18.4727 12.4821 18.3282C12.3383 18.1833 12.2666 17.998 12.2666 17.7729C12.2666 17.5795 12.3463 17.3862 12.5059 17.1931L20.9153 8.71749C21.059 8.57253 21.2428 8.50013 21.4663 8.50013C21.69 8.50013 21.8738 8.57253 22.0174 8.71749L30.4508 17.2172C30.5946 17.362 30.6657 17.5471 30.6657 17.773C30.6657 17.9818 30.5899 18.1635 30.4383 18.316Z" fill="#FFBD49"/>
</svg>
