<svg width="26" height="35" viewBox="0 0 26 35" fill="none" xmlns="http://www.w3.org/2000/svg">
<path d="M20.9796 0H1.14436C0.512404 0 0 0.522333 0 1.16669V30.7222C0 31.3665 0.512337 31.8889 1.14436 31.8889H3.05156V33.8333C3.05156 34.4776 3.56389 35 4.19592 35C4.82787 35 5.34028 34.4777 5.34028 33.8333V31.8889H20.9795C23.2931 31.8889 25.1754 29.9699 25.1754 27.6111V4.27778C25.1754 1.91898 23.2932 0 20.9796 0ZM17.5466 19.6904V22.4778C17.5466 23.122 17.0342 23.6444 16.4022 23.6444H8.77329C8.14133 23.6444 7.62893 23.1221 7.62893 22.4778V19.6904C3.09474 18.3785 3.83277 11.5516 8.54793 11.3001C9.68485 7.1622 15.4899 7.15892 16.6276 11.3001C21.342 11.551 22.0805 18.3785 17.5466 19.6904Z" fill="#096B91"/>
</svg>
