<svg width="35" height="35" viewBox="0 0 35 35" fill="none" xmlns="http://www.w3.org/2000/svg">
<path d="M17.5 35C27.165 35 35 27.165 35 17.5C35 7.83502 27.165 0 17.5 0C7.83502 0 0 7.83502 0 17.5C0 27.165 7.83502 35 17.5 35Z" fill="#79C8A6"/>
<path d="M35 17.3024C35 13.8718 33.9446 10.6773 32.1273 8C32.1273 8 31.1082 9.42493 31.2997 10.3408C31.491 11.2569 32.6155 11.3268 32.5 11.9987C32.3845 12.6707 31.555 11.8064 30.534 13.5772C29.513 15.3481 30.0237 17.7915 31.491 17.9744C32.9584 18.1571 35 17.3024 35 17.3024Z" fill="white"/>
<path d="M21.471 0C23.8476 0.656079 26.052 1.73786 28 3.15961C28 3.15961 25.6324 2.76246 24.7354 3.57802C23.8386 4.39382 22.5306 6.32239 21.4709 3.57802C20.4113 0.833808 21.471 0 21.471 0Z" fill="#79C8A6"/>
<path d="M4 5.8264C7.2432 2.25483 12.0016 0 17.3052 0C17.3052 0 16.1047 0.70249 18.3798 1.89344C20.6551 3.08452 19.6122 3.6341 19.1382 4.00057C18.6643 4.36705 17.8422 3.26769 17.3052 2.53487C16.7682 1.80185 14.462 0.672095 12.6922 1.283C10.9226 1.8939 9.40612 2.34515 9.6587 2.9135C9.91121 3.48172 12.9448 2.38276 14.0824 2.44355C15.22 2.50447 14.8408 3.17617 13.7666 3.97024C12.6922 4.76432 12.5656 5.74143 13.7033 6.35214C14.8408 6.96311 16.2309 7.02423 16.5473 6.65782C16.8634 6.29135 15.9784 3.90939 18.1273 4.94756C20.2762 5.98573 22.0459 6.59696 20.2762 8.12366C18.5065 9.65022 16.4842 11.3609 16.4209 12.3378C16.3576 13.3148 17.0531 14.1094 16.6739 14.1702C16.2947 14.231 15.9466 13.7733 15.694 13.4372C15.4415 13.1012 14.272 12.9792 13.7033 13.1928C13.1344 13.4064 12.0599 14.231 12.6604 15.025C13.2611 15.8192 14.082 15.4523 14.9038 15.8188C15.7255 16.1853 16.4918 17.5801 16.3344 17.8953C16.1771 18.2104 15.4767 17.8114 14.9038 16.735C14.3308 15.6585 13.2562 16.3686 12.5001 16.1853C11.744 16.0022 11.1752 15.88 10.4167 14.5974C9.65828 13.3148 8.08811 12.9559 7.4465 12.2155C5.60853 10.0945 5.74001 8.48987 5.36086 7.75698C4.98164 7.0239 4 5.8264 4 5.8264Z" fill="white"/>
<path d="M19.1531 18.0415C19.1531 18.0415 21.0185 18.2227 21.9511 19.0094C22.8838 19.7959 23.0084 20.0985 24.4384 20.4009C25.8684 20.7032 26.4903 21.4895 25.5576 23.002C24.6249 24.5144 22.9458 26.9344 22.1377 27.6604C21.3296 28.3864 20.3346 28.9913 19.9615 30.2012C19.5885 31.4109 19.4639 32.1365 20.2723 32.6208C20.2723 32.6208 19.8374 33.6494 18.8424 32.3184C17.8474 30.9873 18.6558 29.4147 18.8424 28.5072C19.0289 27.5998 19.5262 24.8778 19.2154 24.212C18.9047 23.5464 17.4743 23.1228 17.1012 21.7316C16.7281 20.3404 17.381 17.6329 19.1531 18.0415Z" fill="white"/>
</svg>
